<svg preserveAspectRatio="none" overflow="visible" style="display: block;" width="908.752" height="23.868" viewBox="0 0 908.752 23.868" fill="none" xmlns="http://www.w3.org/2000/svg">
<g id="Group">
<path id="Vector" d="M7.072 11.05C7.072 9.09712 5.48888 7.514 3.536 7.514C1.58312 7.514 0 9.09712 0 11.05V12.818C0 14.7709 1.58312 16.354 3.536 16.354C5.48888 16.354 7.072 14.7709 7.072 12.818V11.05Z" fill="#6A726E"/>
<path id="Vector_2" d="M24.752 3.536C24.752 1.58312 23.1689 0 21.216 0C19.2631 0 17.68 1.58312 17.68 3.536V20.332C17.68 22.2849 19.2631 23.868 21.216 23.868C23.1689 23.868 24.752 22.2849 24.752 20.332V3.536Z" fill="#6A726E"/>
<path id="Vector_3" d="M42.432 11.05C42.432 9.09712 40.8489 7.514 38.896 7.514C36.9431 7.514 35.36 9.09712 35.36 11.05V12.818C35.36 14.7709 36.9431 16.354 38.896 16.354C40.8489 16.354 42.432 14.7709 42.432 12.818V11.05Z" fill="#6A726E"/>
<path id="Vector_4" d="M60.112 3.536C60.112 1.58312 58.5289 0 56.576 0C54.6231 0 53.04 1.58312 53.04 3.536V20.332C53.04 22.2849 54.6231 23.868 56.576 23.868C58.5289 23.868 60.112 22.2849 60.112 20.332V3.536Z" fill="#6A726E"/>
<path id="Vector_5" d="M77.792 11.05C77.792 9.09712 76.2089 7.514 74.256 7.514C72.3031 7.514 70.72 9.09712 70.72 11.05V12.818C70.72 14.7709 72.3031 16.354 74.256 16.354C76.2089 16.354 77.792 14.7709 77.792 12.818V11.05Z" fill="#6A726E"/>
<path id="Vector_6" d="M95.472 3.536C95.472 1.58312 93.8889 0 91.936 0C89.9831 0 88.4 1.58312 88.4 3.536V20.332C88.4 22.2849 89.9831 23.868 91.936 23.868C93.8889 23.868 95.472 22.2849 95.472 20.332V3.536Z" fill="#6A726E"/>
<path id="Vector_7" d="M113.152 11.05C113.152 9.09712 111.569 7.514 109.616 7.514C107.663 7.514 106.08 9.09712 106.08 11.05V12.818C106.08 14.7709 107.663 16.354 109.616 16.354C111.569 16.354 113.152 14.7709 113.152 12.818V11.05Z" fill="#6A726E"/>
<path id="Vector_8" d="M130.832 3.536C130.832 1.58312 129.249 0 127.296 0C125.343 0 123.76 1.58312 123.76 3.536V20.332C123.76 22.2849 125.343 23.868 127.296 23.868C129.249 23.868 130.832 22.2849 130.832 20.332V3.536Z" fill="#6A726E"/>
<path id="Vector_9" d="M148.512 11.05C148.512 9.09712 146.929 7.514 144.976 7.514C143.023 7.514 141.44 9.09712 141.44 11.05V12.818C141.44 14.7709 143.023 16.354 144.976 16.354C146.929 16.354 148.512 14.7709 148.512 12.818V11.05Z" fill="#6A726E"/>
<path id="Vector_10" d="M166.192 3.536C166.192 1.58312 164.609 0 162.656 0C160.703 0 159.12 1.58312 159.12 3.536V20.332C159.12 22.2849 160.703 23.868 162.656 23.868C164.609 23.868 166.192 22.2849 166.192 20.332V3.536Z" fill="#6A726E"/>
<path id="Vector_11" d="M183.872 11.05C183.872 9.09712 182.289 7.514 180.336 7.514C178.383 7.514 176.8 9.09712 176.8 11.05V12.818C176.8 14.7709 178.383 16.354 180.336 16.354C182.289 16.354 183.872 14.7709 183.872 12.818V11.05Z" fill="#6A726E"/>
<path id="Vector_12" d="M201.552 3.536C201.552 1.58312 199.969 0 198.016 0C196.063 0 194.48 1.58312 194.48 3.536V20.332C194.48 22.2849 196.063 23.868 198.016 23.868C199.969 23.868 201.552 22.2849 201.552 20.332V3.536Z" fill="#6A726E"/>
<path id="Vector_13" d="M219.232 11.05C219.232 9.09712 217.649 7.514 215.696 7.514C213.743 7.514 212.16 9.09712 212.16 11.05V12.818C212.16 14.7709 213.743 16.354 215.696 16.354C217.649 16.354 219.232 14.7709 219.232 12.818V11.05Z" fill="#6A726E"/>
<path id="Vector_14" d="M236.912 3.536C236.912 1.58312 235.329 0 233.376 0C231.423 0 229.84 1.58312 229.84 3.536V20.332C229.84 22.2849 231.423 23.868 233.376 23.868C235.329 23.868 236.912 22.2849 236.912 20.332V3.536Z" fill="#6A726E"/>
<path id="Vector_15" d="M254.592 11.05C254.592 9.09712 253.009 7.514 251.056 7.514C249.103 7.514 247.52 9.09712 247.52 11.05V12.818C247.52 14.7709 249.103 16.354 251.056 16.354C253.009 16.354 254.592 14.7709 254.592 12.818V11.05Z" fill="#6A726E"/>
<path id="Vector_16" d="M272.272 3.536C272.272 1.58312 270.689 0 268.736 0C266.783 0 265.2 1.58312 265.2 3.536V20.332C265.2 22.2849 266.783 23.868 268.736 23.868C270.689 23.868 272.272 22.2849 272.272 20.332V3.536Z" fill="#6A726E"/>
<path id="Vector_17" d="M289.952 11.05C289.952 9.09712 288.369 7.514 286.416 7.514C284.463 7.514 282.88 9.09712 282.88 11.05V12.818C282.88 14.7709 284.463 16.354 286.416 16.354C288.369 16.354 289.952 14.7709 289.952 12.818V11.05Z" fill="#6A726E"/>
<path id="Vector_18" d="M307.632 3.536C307.632 1.58312 306.049 0 304.096 0C302.143 0 300.56 1.58312 300.56 3.536V20.332C300.56 22.2849 302.143 23.868 304.096 23.868C306.049 23.868 307.632 22.2849 307.632 20.332V3.536Z" fill="#6A726E"/>
<path id="Vector_19" d="M325.312 11.05C325.312 9.09712 323.729 7.514 321.776 7.514C319.823 7.514 318.24 9.09712 318.24 11.05V12.818C318.24 14.7709 319.823 16.354 321.776 16.354C323.729 16.354 325.312 14.7709 325.312 12.818V11.05Z" fill="#6A726E"/>
<path id="Vector_20" d="M342.992 3.536C342.992 1.58312 341.409 0 339.456 0C337.503 0 335.92 1.58312 335.92 3.536V20.332C335.92 22.2849 337.503 23.868 339.456 23.868C341.409 23.868 342.992 22.2849 342.992 20.332V3.536Z" fill="#6A726E"/>
<path id="Vector_21" d="M360.672 11.05C360.672 9.09712 359.089 7.514 357.136 7.514C355.183 7.514 353.6 9.09712 353.6 11.05V12.818C353.6 14.7709 355.183 16.354 357.136 16.354C359.089 16.354 360.672 14.7709 360.672 12.818V11.05Z" fill="#6A726E"/>
<path id="Vector_22" d="M378.352 3.536C378.352 1.58312 376.769 0 374.816 0C372.863 0 371.28 1.58312 371.28 3.536V20.332C371.28 22.2849 372.863 23.868 374.816 23.868C376.769 23.868 378.352 22.2849 378.352 20.332V3.536Z" fill="#6A726E"/>
<path id="Vector_23" d="M396.032 11.05C396.032 9.09712 394.449 7.514 392.496 7.514C390.543 7.514 388.96 9.09712 388.96 11.05V12.818C388.96 14.7709 390.543 16.354 392.496 16.354C394.449 16.354 396.032 14.7709 396.032 12.818V11.05Z" fill="#6A726E"/>
<path id="Vector_24" d="M413.712 3.536C413.712 1.58312 412.129 0 410.176 0C408.223 0 406.64 1.58312 406.64 3.536V20.332C406.64 22.2849 408.223 23.868 410.176 23.868C412.129 23.868 413.712 22.2849 413.712 20.332V3.536Z" fill="#6A726E"/>
<path id="Vector_25" d="M431.392 11.05C431.392 9.09712 429.809 7.514 427.856 7.514C425.903 7.514 424.32 9.09712 424.32 11.05V12.818C424.32 14.7709 425.903 16.354 427.856 16.354C429.809 16.354 431.392 14.7709 431.392 12.818V11.05Z" fill="#6A726E"/>
<path id="Vector_26" d="M449.072 3.536C449.072 1.58312 447.489 0 445.536 0C443.583 0 442 1.58312 442 3.536V20.332C442 22.2849 443.583 23.868 445.536 23.868C447.489 23.868 449.072 22.2849 449.072 20.332V3.536Z" fill="#6A726E"/>
<path id="Vector_27" d="M466.752 11.05C466.752 9.09712 465.169 7.514 463.216 7.514C461.263 7.514 459.68 9.09712 459.68 11.05V12.818C459.68 14.7709 461.263 16.354 463.216 16.354C465.169 16.354 466.752 14.7709 466.752 12.818V11.05Z" fill="#6A726E"/>
<path id="Vector_28" d="M484.432 3.536C484.432 1.58312 482.849 0 480.896 0C478.943 0 477.36 1.58312 477.36 3.536V20.332C477.36 22.2849 478.943 23.868 480.896 23.868C482.849 23.868 484.432 22.2849 484.432 20.332V3.536Z" fill="#6A726E"/>
<path id="Vector_29" d="M502.112 11.05C502.112 9.09712 500.529 7.514 498.576 7.514C496.623 7.514 495.04 9.09712 495.04 11.05V12.818C495.04 14.7709 496.623 16.354 498.576 16.354C500.529 16.354 502.112 14.7709 502.112 12.818V11.05Z" fill="#6A726E"/>
<path id="Vector_30" d="M519.792 3.536C519.792 1.58312 518.209 0 516.256 0C514.303 0 512.72 1.58312 512.72 3.536V20.332C512.72 22.2849 514.303 23.868 516.256 23.868C518.209 23.868 519.792 22.2849 519.792 20.332V3.536Z" fill="#6A726E"/>
<path id="Vector_31" d="M537.472 11.05C537.472 9.09712 535.889 7.514 533.936 7.514C531.983 7.514 530.4 9.09712 530.4 11.05V12.818C530.4 14.7709 531.983 16.354 533.936 16.354C535.889 16.354 537.472 14.7709 537.472 12.818V11.05Z" fill="#6A726E"/>
<path id="Vector_32" d="M555.152 3.536C555.152 1.58312 553.569 0 551.616 0C549.663 0 548.08 1.58312 548.08 3.536V20.332C548.08 22.2849 549.663 23.868 551.616 23.868C553.569 23.868 555.152 22.2849 555.152 20.332V3.536Z" fill="#6A726E"/>
<path id="Vector_33" d="M572.832 11.05C572.832 9.09712 571.249 7.514 569.296 7.514C567.343 7.514 565.76 9.09712 565.76 11.05V12.818C565.76 14.7709 567.343 16.354 569.296 16.354C571.249 16.354 572.832 14.7709 572.832 12.818V11.05Z" fill="#6A726E"/>
<path id="Vector_34" d="M590.512 3.536C590.512 1.58312 588.929 0 586.976 0C585.023 0 583.44 1.58312 583.44 3.536V20.332C583.44 22.2849 585.023 23.868 586.976 23.868C588.929 23.868 590.512 22.2849 590.512 20.332V3.536Z" fill="#6A726E"/>
<path id="Vector_35" d="M608.192 11.05C608.192 9.09712 606.609 7.514 604.656 7.514C602.703 7.514 601.12 9.09712 601.12 11.05V12.818C601.12 14.7709 602.703 16.354 604.656 16.354C606.609 16.354 608.192 14.7709 608.192 12.818V11.05Z" fill="#6A726E"/>
<path id="Vector_36" d="M625.872 3.536C625.872 1.58312 624.289 0 622.336 0C620.383 0 618.8 1.58312 618.8 3.536V20.332C618.8 22.2849 620.383 23.868 622.336 23.868C624.289 23.868 625.872 22.2849 625.872 20.332V3.536Z" fill="#6A726E"/>
<path id="Vector_37" d="M643.552 11.05C643.552 9.09712 641.969 7.514 640.016 7.514C638.063 7.514 636.48 9.09712 636.48 11.05V12.818C636.48 14.7709 638.063 16.354 640.016 16.354C641.969 16.354 643.552 14.7709 643.552 12.818V11.05Z" fill="#6A726E"/>
<path id="Vector_38" d="M661.232 3.536C661.232 1.58312 659.649 0 657.696 0C655.743 0 654.16 1.58312 654.16 3.536V20.332C654.16 22.2849 655.743 23.868 657.696 23.868C659.649 23.868 661.232 22.2849 661.232 20.332V3.536Z" fill="#6A726E"/>
<path id="Vector_39" d="M678.912 11.05C678.912 9.09712 677.329 7.514 675.376 7.514C673.423 7.514 671.84 9.09712 671.84 11.05V12.818C671.84 14.7709 673.423 16.354 675.376 16.354C677.329 16.354 678.912 14.7709 678.912 12.818V11.05Z" fill="#6A726E"/>
<path id="Vector_40" d="M696.592 3.536C696.592 1.58312 695.009 0 693.056 0C691.103 0 689.52 1.58312 689.52 3.536V20.332C689.52 22.2849 691.103 23.868 693.056 23.868C695.009 23.868 696.592 22.2849 696.592 20.332V3.536Z" fill="#6A726E"/>
<path id="Vector_41" d="M714.272 11.05C714.272 9.09712 712.689 7.514 710.736 7.514C708.783 7.514 707.2 9.09712 707.2 11.05V12.818C707.2 14.7709 708.783 16.354 710.736 16.354C712.689 16.354 714.272 14.7709 714.272 12.818V11.05Z" fill="#6A726E"/>
<path id="Vector_42" d="M731.952 3.536C731.952 1.58312 730.369 0 728.416 0C726.463 0 724.88 1.58312 724.88 3.536V20.332C724.88 22.2849 726.463 23.868 728.416 23.868C730.369 23.868 731.952 22.2849 731.952 20.332V3.536Z" fill="#6A726E"/>
<path id="Vector_43" d="M749.632 11.05C749.632 9.09712 748.049 7.514 746.096 7.514C744.143 7.514 742.56 9.09712 742.56 11.05V12.818C742.56 14.7709 744.143 16.354 746.096 16.354C748.049 16.354 749.632 14.7709 749.632 12.818V11.05Z" fill="#6A726E"/>
<path id="Vector_44" d="M767.312 3.536C767.312 1.58312 765.729 0 763.776 0C761.823 0 760.24 1.58312 760.24 3.536V20.332C760.24 22.2849 761.823 23.868 763.776 23.868C765.729 23.868 767.312 22.2849 767.312 20.332V3.536Z" fill="#6A726E"/>
<path id="Vector_45" d="M784.992 11.05C784.992 9.09712 783.409 7.514 781.456 7.514C779.503 7.514 777.92 9.09712 777.92 11.05V12.818C777.92 14.7709 779.503 16.354 781.456 16.354C783.409 16.354 784.992 14.7709 784.992 12.818V11.05Z" fill="#6A726E"/>
<path id="Vector_46" d="M802.672 3.536C802.672 1.58312 801.089 0 799.136 0C797.183 0 795.6 1.58312 795.6 3.536V20.332C795.6 22.2849 797.183 23.868 799.136 23.868C801.089 23.868 802.672 22.2849 802.672 20.332V3.536Z" fill="#6A726E"/>
<path id="Vector_47" d="M820.352 11.05C820.352 9.09712 818.769 7.514 816.816 7.514C814.863 7.514 813.28 9.09712 813.28 11.05V12.818C813.28 14.7709 814.863 16.354 816.816 16.354C818.769 16.354 820.352 14.7709 820.352 12.818V11.05Z" fill="#6A726E"/>
<path id="Vector_48" d="M838.032 3.536C838.032 1.58312 836.449 0 834.496 0C832.543 0 830.96 1.58312 830.96 3.536V20.332C830.96 22.2849 832.543 23.868 834.496 23.868C836.449 23.868 838.032 22.2849 838.032 20.332V3.536Z" fill="#6A726E"/>
<path id="Vector_49" d="M855.712 11.05C855.712 9.09712 854.129 7.514 852.176 7.514C850.223 7.514 848.64 9.09712 848.64 11.05V12.818C848.64 14.7709 850.223 16.354 852.176 16.354C854.129 16.354 855.712 14.7709 855.712 12.818V11.05Z" fill="#6A726E"/>
<path id="Vector_50" d="M873.392 3.536C873.392 1.58312 871.809 0 869.856 0C867.903 0 866.32 1.58312 866.32 3.536V20.332C866.32 22.2849 867.903 23.868 869.856 23.868C871.809 23.868 873.392 22.2849 873.392 20.332V3.536Z" fill="#6A726E"/>
<path id="Vector_51" d="M891.072 11.05C891.072 9.09712 889.489 7.514 887.536 7.514C885.583 7.514 884 9.09712 884 11.05V12.818C884 14.7709 885.583 16.354 887.536 16.354C889.489 16.354 891.072 14.7709 891.072 12.818V11.05Z" fill="#6A726E"/>
<path id="Vector_52" d="M908.752 3.536C908.752 1.58312 907.169 0 905.216 0C903.263 0 901.68 1.58312 901.68 3.536V20.332C901.68 22.2849 903.263 23.868 905.216 23.868C907.169 23.868 908.752 22.2849 908.752 20.332V3.536Z" fill="#6A726E"/>
</g>
</svg>
